PathFileType	4	(X/Y/Z)	OpenSim_Sub11_CSPreOp_Accel.trc
DataRate	CameraRate	NumFrames	NumMarkers	Units	OrigDataRate	OrigDataStartFrame	OrigNumFrames
100	100	34	8	m	100	1851	3701
Frame#	Time	torso_imu_offset_imu	pelvis_imu_offset_imu	tibia_r_imu_offset_imu	femur_r_imu_offset_imu	tibia_l_imu_offset_imu	femur_l_imu_offset_imu	toes_r_imu_offset_imu	toes_l_imu_offset_imu
				X1	Y1	Z1	X2	Y2	Z2	X3	Y3	Z3	X4	Y4	Z4	X5	Y5	Z5	X6	Y6	Z6	X7	Y7	Z7	X8		Y8	Z8	

1851	18.50000000	9.18574800	0.30131600	4.28708500	9.64965800	0.39146800	3.60473300	7.51885500	5.70388000	1.63760600	10.78546300	3.92458700	-0.88757100	10.03549600	0.23609600	-0.09536100	9.39061200	2.63208900	-2.13765800	0.75899800	-2.41969000	9.94666100	5.83659600	0.20670100	7.91239100
1852	18.51000000	9.29433700	0.17829600	4.32151300	9.57450200	0.36827100	3.59144500	6.83401200	4.43524900	1.71798000	10.33765100	3.95096500	-0.93692100	10.00974300	-0.04499500	-0.16278100	9.39467900	2.47735900	-2.19844600	0.36339600	-1.93901900	9.73437300	5.54726500	0.22393300	8.11519800
1853	18.52000000	9.40202400	0.22464400	4.33121300	9.52658700	0.37643600	3.51734900	6.36298900	3.80188700	1.56714600	9.96922600	3.99304600	-0.93244100	10.01369800	-0.21202800	-0.06245200	9.41632400	2.68798900	-2.09224900	0.18127000	-1.78558600	9.26275400	5.70662500	0.35096000	8.03428200
1854	18.53000000	9.50857900	0.13071800	4.30064800	9.38768700	0.29961300	3.44560200	6.02648800	3.58092900	1.45522300	9.49415000	3.43938700	-1.09742800	9.96388400	-0.19189200	0.07647100	9.38986200	2.47260400	-2.08879200	0.29093800	-1.29206700	9.11835100	6.11943200	-0.07532500	7.68733300
1855	18.54000000	9.48289700	0.04502300	4.26882900	9.21954100	0.17280300	3.46282600	5.97226800	3.69294900	1.59152800	9.14626500	2.79134100	-1.17168800	9.94692500	-0.26694200	0.13270500	9.41986600	2.30031700	-2.10042100	0.53552700	-0.91391900	9.04316200	5.99250200	0.01947600	7.82181200
1856	18.55000000	9.41246800	-0.08262700	4.23121700	9.10323400	0.09447000	3.38997600	5.97503800	4.08081200	1.81702100	8.87608300	2.17086100	-1.22388000	9.90187700	-0.40715800	0.11735700	9.38480500	2.32445300	-2.13697800	0.70365000	-0.89258900	8.97822800	5.47129200	0.18250500	8.17770700
1857	18.56000000	9.30873000	-0.15073400	4.22145900	9.03327900	-0.02416000	3.39573600	6.13849500	4.77533100	2.03779600	8.69155200	1.27545900	-1.27065500	9.85766000	-0.12304100	0.27368600	9.34597900	2.22322600	-2.18816600	1.01623700	-0.99407900	8.93204700	5.78848700	0.18549700	7.93860900
1858	18.57000000	9.17166600	-0.16847700	4.21737400	9.01562500	-0.14146100	3.44582700	6.39720800	5.40602500	2.04394900	8.56944000	0.55242200	-1.33056400	9.81880700	0.26807000	0.36302300	9.43473700	2.11454100	-2.14418200	1.57612000	-0.76890900	9.26725000	5.56751100	0.16615900	8.07685100
1859	18.58000000	9.10041800	-0.00531200	4.29257900	9.02028300	-0.24870300	3.44166100	6.60577800	5.89603600	2.07250500	8.47862900	0.08631700	-1.28076100	9.82779300	0.44778100	0.25144200	9.46518800	2.38349400	-2.06658300	2.21604600	-0.48109700	9.63779100	5.99033900	0.09097000	7.78190400
1860	18.59000000	8.90928700	0.27618000	4.42455500	9.00324600	-0.34564600	3.46302700	6.86103400	6.30514600	2.08302200	8.49534300	-0.28203700	-1.19557400	9.81142700	0.40525900	0.21995200	9.38280100	2.59727900	-1.98219400	2.77693100	-0.37599600	9.84870000	5.72659800	0.06540000	7.95436800
1861	18.60000000	8.80288000	0.25513200	4.39859900	9.03485400	-0.41863700	3.39926100	7.24992400	6.72495700	2.21509600	8.54778600	-0.40860500	-1.02538200	9.74166100	0.32510500	0.33120800	9.35725200	2.63362400	-1.84487500	2.95978200	-0.41221900	9.76226300	6.20237600	-0.01810700	7.65517700
1862	18.61000000	8.68676400	0.25346000	4.47201200	9.00949600	-0.52748100	3.34792400	7.75490300	7.04560000	2.01836200	8.55638600	-0.47092900	-0.84017100	9.76599500	0.28302600	0.40454300	9.25207400	3.15471400	-1.69806800	3.26098500	-0.55141400	9.68385100	5.74613200	0.04241000	7.90125700
1863	18.62000000	8.62296700	0.26327900	4.43347400	9.04846800	-0.57094100	3.30196000	8.13779400	6.91823400	1.82707000	8.67362800	-0.38798600	-0.64763800	9.79021100	0.25519900	0.43205400	9.21903300	3.10568500	-1.69787100	3.87589800	-0.51214100	9.71137500	5.65930700	0.06443100	8.00767800
1864	18.63000000	8.62511300	0.31516300	4.42967900	9.06835000	-0.58478500	3.25311900	8.34404800	6.54348900	1.74530800	8.92871700	-0.44196500	-0.57270400	9.82031000	0.18879500	0.49875900	9.26408900	2.92731900	-1.65470300	4.47640900	-0.53746800	9.64298900	5.56057600	0.21883900	8.11908000
1865	18.64000000	8.67059900	0.39941800	4.41175200	9.06189300	-0.59626200	3.18232400	8.38048800	5.93469400	1.85977600	8.98730500	-0.18603400	-0.47013700	9.75502100	0.34528000	0.46022700	9.35154100	2.81146400	-1.62547900	4.94116100	-0.79396400	9.65412300	6.04884500	-0.19798000	7.64229900
1866	18.65000000	8.66000600	0.38731900	4.30494100	9.04152400	-0.55354200	3.10420400	8.27252300	5.17224200	1.86360400	9.03080700	0.05252600	-0.38924600	9.79119200	0.14432200	0.53225000	9.36008800	2.81598200	-1.55941900	6.20056700	-1.01133400	10.37362600	5.90253700	0.04646900	7.81416500
1867	18.66000000	8.68586600	0.40818100	4.37059400	9.01027900	-0.45226600	3.04235300	8.10593800	4.48622400	2.14563600	8.94154800	0.11787400	-0.31256400	9.82663800	-0.22602800	0.46956000	9.37923800	2.62119000	-1.53123300	8.37562100	-1.16806000	11.00242500	5.45356500	0.13294800	8.13063800
1868	18.67000000	8.67676300	0.49200800	4.32959600	9.02013400	-0.41746100	3.06243100	8.03210900	3.82610000	2.49785400	8.96234900	0.13541500	-0.18541200	9.79540900	-0.35831200	0.51459600	9.44686400	2.49005700	-1.49470000	9.73001800	-1.08824400	11.23308900	5.73784700	0.29568100	8.03919500
1869	18.68000000	8.74471300	0.45767900	4.31336400	8.96412000	-0.32589100	3.02938900	8.35017000	2.95763600	2.59454900	8.77479000	-0.30966800	-0.14848200	9.81397600	-0.06592600	0.60274800	9.43582300	2.36736900	-1.48983000	10.46556300	-0.84998600	10.75276000	5.69025000	-0.10070400	7.89798200
1870	18.69000000	8.70350200	0.43385700	4.32282000	8.97776200	-0.28279000	3.07133800	8.88287700	1.99492000	2.64927800	8.76110300	-0.66259400	-0.17774600	9.77352200	-0.00079200	0.53502400	9.45907800	2.21592400	-1.54295900	10.12666700	-1.21187300	9.51990800	5.95864600	0.07019100	7.85728800
1871	18.70000000	8.81547300	0.46992800	4.38383400	8.95284800	-0.28750000	3.07540700	9.62296500	1.14080400	2.70759500	8.97652300	-1.28972000	-0.37922100	9.81451000	-0.07678400	0.47174000	9.42604400	2.14460100	-1.58815900	9.62100000	-1.31956100	8.13903200	5.68226300	-0.04244900	7.91488400
1872	18.71000000	8.78328100	0.39451400	4.36481700	8.92570400	-0.30959100	3.10732300	10.24447300	0.50060600	2.91434500	9.06462700	-1.65109900	-0.65761800	9.77009500	-0.25179700	0.47734100	9.28761800	2.26761700	-1.61909000	9.35168500	-1.27438400	7.32948900	6.18757600	-0.11057400	7.69213800
1873	18.72000000	8.72100300	0.35781800	4.46254000	8.87492700	-0.32445400	3.14058100	10.71909200	0.11559200	3.09915300	9.12068400	-2.04184800	-0.90408000	9.79979200	-0.52978400	0.44865200	9.22726900	2.41425700	-1.64588500	10.25202600	-0.80359500	7.49467900	5.63939900	-0.02549800	7.98648200
1874	18.73000000	8.67427200	0.43188600	4.29613100	8.84539400	-0.33173600	3.09575300	10.69965100	0.08881200	3.13591500	9.09933000	-2.23467300	-1.08760200	9.77274900	-0.64614300	0.37199400	9.26550800	2.36465300	-1.71197700	12.01367400	-0.28581100	7.83646700	5.84197400	-0.03138500	7.88865000
1875	18.74000000	8.67719600	0.47596500	4.38292000	8.86100900	-0.38352000	3.12812300	10.39379200	0.19911500	3.12227200	9.20589900	-2.18870000	-1.12619200	9.82832400	-0.49245300	0.41730800	9.30912700	2.34837500	-1.78199000	13.02907100	-0.11257400	7.86703700	5.44686400	0.18585200	8.18555300
1876	18.75000000	8.76462200	0.55071900	4.37474700	8.92654200	-0.44142100	3.18151300	10.13688700	0.60940700	2.67282400	9.55443700	-2.20888000	-1.12779700	9.76251300	-0.08737600	0.41952400	9.33776500	2.37503200	-1.79993300	13.08987500	-0.18562900	7.02459300	6.20765900	-0.18683100	7.60024300
1877	18.76000000	8.83044500	0.64526300	4.38497100	9.05805800	-0.52304300	3.18260600	10.10192900	1.12264000	2.10863300	9.91575300	-2.18151100	-1.02191200	9.84823200	-0.03037200	0.38080800	9.31291100	2.44981300	-1.78034600	12.38700100	0.30551100	5.92013300	5.84597100	-0.09185300	7.84805200
1878	18.77000000	8.87513800	0.69947700	4.41336100	9.17086500	-0.56005400	3.12875400	10.31248600	1.45281200	1.49476900	10.46927100	-2.32680200	-1.01916900	9.85399600	-0.41705400	0.26353200	9.28628500	2.32617100	-1.82588900	11.28794600	1.39385300	5.08192000	5.61537200	0.02362000	8.05480800
1879	18.78000000	8.95241700	0.76326900	4.43646600	9.28637600	-0.57770000	3.04616300	10.55671400	1.42267200	1.11508200	10.70096200	-2.55619900	-1.03900700	9.89870800	-0.60128000	0.34958800	9.26975400	2.32665200	-1.85421300	11.19867800	2.06948600	4.75290200	5.54709300	0.11556800	8.10733200
1880	18.79000000	8.97513900	0.75645400	4.43841100	9.37091200	-0.61773300	2.94443700	10.62171100	1.38043100	1.39926100	10.55046000	-2.89095600	-1.01745000	9.88485300	-0.47339200	0.41537400	9.30665400	2.24619600	-1.89353400	12.10484200	2.66346300	4.64063400	5.83279100	-0.16177800	7.91029100
1881	18.80000000	9.09584200	0.78856200	4.44748700	9.35074700	-0.69963900	2.90831900	10.53753200	1.11599900	1.56715600	10.22891700	-3.11676300	-0.98578800	9.93193000	-0.48245800	0.38275200	9.43497800	2.17626700	-2.00958500	11.90073000	2.85001300	3.85516500	5.72656500	-0.03258200	7.95425700
1882	18.81000000	9.08642600	0.71841500	4.47850900	9.37249000	-0.72929600	2.93209000	9.95275200	0.82148100	1.98394400	10.00846500	-3.17141700	-1.07218400	9.92764200	-0.58825200	0.28951400	9.55734100	2.01539200	-2.14729500	11.23273300	2.04997500	2.66603800	5.81403100	-0.16819400	7.89951000
1883	18.82000000	9.07667000	0.64866800	4.51015700	9.37347800	-0.75073800	2.97974600	9.21294100	0.66830500	2.30296200	9.74271200	-3.04771000	-1.18165100	9.88374600	-0.71122300	0.37151400	9.50161000	2.05085300	-2.21669700	10.70465600	2.27586600	1.78060100	6.07030700	-0.12597500	7.78317300
1884	18.83000000	9.11042900	0.56014400	4.55051300	9.32220700	-0.73847600	2.87693800	8.27255100	0.74661600	2.79184200	9.52911700	-2.82124500	-1.30210400	9.90034800	-0.83115200	0.32861900	9.28338400	2.03286700	-2.23808200	10.45075600	2.22154800	1.29862100	5.75678100	-0.21736100	7.88208200
